<svg width="64" height="64" viewBox="0 0 64 64" fill="none" xmlns="http://www.w3.org/2000/svg">
<g clip-path="url(#clip0_236_16)">
<rect x="20" y="53" width="12" height="26" fill="#0CC11E"/>
<rect x="35" y="56" width="12" height="14" fill="#B2160C"/>
<rect x="5" y="43" width="12" height="32" fill="#B2160C"/>
<rect x="50" y="43" width="12" height="21" fill="#0CC11E"/>
<path d="M49.813 19.2053C50.3483 14.1544 46.4113 11.6205 41.1091 10.0451L42.5122 3.1739L38.3297 2.32025L36.9637 9.01034C35.8642 8.78596 34.7359 8.57816 33.6147 8.37242L34.9906 1.63821L30.8104 0.784454L29.4061 7.65331C28.4969 7.48689 27.6042 7.32211 26.737 7.14562L26.7408 7.1242L20.9726 5.94423L20.0615 10.4114C20.0615 10.4114 23.1621 10.9832 23.0991 11.0296C24.7931 11.3761 25.1436 12.4722 25.1307 13.3536L23.5326 21.1814C23.6494 21.2059 23.8009 21.2419 23.9687 21.3008C23.8293 21.2725 23.6804 21.2411 23.5268 21.2111L21.2864 32.1767C21.1032 32.6947 20.6162 33.4808 19.4322 33.2411C19.476 33.2994 16.392 32.6194 16.392 32.6194L14.541 37.4446L19.9839 38.5559C20.9965 38.7639 21.9896 38.9846 22.9667 39.1906L21.5493 46.1403L25.7271 46.9942L27.1311 40.1183C28.2734 40.3762 29.3817 40.6121 30.4657 40.8324L29.0662 47.6762L33.2487 48.5299L34.6666 41.5931C41.7805 42.6256 47.0636 41.8592 49.0231 35.3809C50.6023 30.1648 48.5857 27.2816 44.79 25.508C47.467 24.7685 49.4273 22.9024 49.813 19.2053ZM40.9271 32.8697C39.8689 38.0635 31.0972 35.6569 28.2621 35.0808L30.1435 25.8735C32.9787 26.4532 42.0336 27.4531 40.9271 32.8697ZM41.6347 19.482C40.6685 24.2066 33.3651 22.1408 31.004 21.6588L32.7096 13.3081C35.0706 13.7901 42.6406 14.5538 41.6347 19.482Z" fill="#FF961B"/>
</g>
<defs>
<clipPath id="clip0_236_16">
<rect width="64" height="64" fill="white"/>
</clipPath>
</defs>
</svg>
