<svg width="1512" height="840" viewBox="0 0 1512 840" fill="none" xmlns="http://www.w3.org/2000/svg">
<path d="M161.136 598.524L27.8849 335.112C20.7572 321.021 -0.5 326.092 -0.5 341.882V824.5C-0.5 832.784 6.21576 839.5 14.5 839.5H1497.5C1505.78 839.5 1512.5 832.784 1512.5 824.5V194.297C1512.5 190.567 1511.11 186.97 1508.6 184.21L1346 5.25181C1339.57 -1.8222 1328.25 -1.1607 1322.69 6.6141L1021.09 428.396C1015.77 435.833 1005.09 436.823 998.494 430.489L970.813 403.905C965.039 398.359 955.928 398.326 950.113 403.828L812.813 533.742C807.028 539.216 797.974 539.214 792.19 533.739L718.903 464.349C713.082 458.838 703.956 458.877 698.183 464.439L568.829 589.049C563.051 594.616 553.916 594.65 548.097 589.127L354.684 405.563C348.189 399.4 337.776 400.262 332.383 407.41L186.495 600.786C179.809 609.649 166.147 608.43 161.136 598.524Z" fill="black" fill-opacity="0.03"/>
</svg>
